<?xml version="1.0" standalone="no"?><!DOCTYPE svg PUBLIC "-//W3C//DTD SVG 1.1//EN" "http://www.w3.org/Graphics/SVG/1.1/DTD/svg11.dtd"><svg t="1639823963662" class="icon" viewBox="0 0 1024 1024" version="1.1" xmlns="http://www.w3.org/2000/svg" p-id="4412" xmlns:xlink="http://www.w3.org/1999/xlink" width="200" height="200"><defs><style type="text/css"></style></defs><path d="M656 928a48 48 0 1 1 0 96h-288a48 48 0 1 1 0-96h288zM512 0a384 384 0 0 1 384 384v320h80a48 48 0 1 1 0 96H48a48 48 0 1 1 0-96H128V384a384 384 0 0 1 384-384z" fill="#0283FF" p-id="4413"></path><path d="M632.448 374.784H535.872l18.112-171.264c0.384-4.48-1.408-8.768-4.48-10.624-3.008-1.856-6.528-0.832-8.768 2.56L385.792 440.32a13.312 13.312 0 0 0-1.088 10.88c1.28 3.648 3.84 6.016 6.848 6.016h96.576L470.016 628.48c-0.384 4.48 1.408 8.768 4.48 10.624 3.008 1.856 6.528 0.832 8.768-2.56L638.208 391.68a13.312 13.312 0 0 0 1.088-10.88c-1.28-3.648-3.84-6.016-6.848-6.016z" fill="#0E57A4" p-id="4414"></path></svg>
